{
  "accessors": [
    {
      "bufferView": 2,
      "componentType": 5126,
      "count": 60543,
      "max": [6.309428691864014, 5.2311930656433105, 2.396901845932007],
      "min": [-7.614199638366699, -6.092513084411621, -2.2800045013427734],
      "type": "VEC3"
    },
    {
      "bufferView": 2,
      "byteOffset": 726516,
      "componentType": 5126,
      "count": 60543,
      "max": [0.9998800754547119, 0.9999938607215881, 0.9999927282333374],
      "min": [-0.9999946355819702, -0.9999390244483948, -0.9999942779541016],
      "type": "VEC3"
    },
    {
      "bufferView": 1,
      "componentType": 5126,
      "count": 60543,
      "max": [0.9995114207267761, 0.47412100434303284],
      "min": [0.00048828125, 0.0004883004585281014],
      "type": "VEC2"
    },
    {
      "bufferView": 0,
      "componentType": 5125,
      "count": 293232,
      "type": "SCALAR"
    }
  ],
  "asset": {
    "extras": {
      "author": "matousekfoto (https://sketchfab.com/matousekfoto)",
      "license": "CC-BY-4.0 (http://creativecommons.org/licenses/by/4.0/)",
      "source": "https://sketchfab.com/3d-models/lion-door-knocker-36d3c4f4b9454f4d9aaf5aab892586ca",
      "title": "Lion door knocker"
    },
    "generator": "Sketchfab-12.67.0",
    "version": "2.0"
  },
  "bufferViews": [
    {
      "buffer": 0,
      "byteLength": 1172928,
      "name": "floatBufferViews",
      "target": 34963
    },
    {
      "buffer": 0,
      "byteLength": 484344,
      "byteOffset": 1172928,
      "byteStride": 8,
      "name": "floatBufferViews",
      "target": 34962
    },
    {
      "buffer": 0,
      "byteLength": 1453032,
      "byteOffset": 1657272,
      "byteStride": 12,
      "name": "floatBufferViews",
      "target": 34962
    }
  ],
  "buffers": [
    {
      "byteLength": 3110304,
      "uri": "lion.bin"
    }
  ],
  "images": [
    {
      "uri": "textures/Material_u1_v1_baseColor.png"
    }
  ],
  "materials": [
    {
      "doubleSided": true,
      "name": "Material_u1_v1",
      "pbrMetallicRoughness": {
        "baseColorTexture": {
          "index": 0
        },
        "metallicFactor": 0.47911554955878805,
        "roughnessFactor": 0.527165186794742
      }
    }
  ],
  "meshes": [
    {
      "name": "meshNode_Material_u1_v1_0",
      "primitives": [
        {
          "attributes": {
            "NORMAL": 1,
            "POSITION": 0,
            "TEXCOORD_0": 2
          },
          "indices": 3,
          "material": 0,
          "mode": 4
        }
      ]
    }
  ],
  "nodes": [
    {
      "children": [1],
      "matrix": [
        0.000197695689806863, -9.63178101264432e-5, -5.800933548481147e-20, 0.0,
        9.591071779311688e-5, 0.00019686012648463102, 2.0197301350804824e-5,
        0.0, -8.846135573189519e-6, -1.8157006220503742e-5,
        0.00021898122829899173, 0.0, -32.56833267211914, -70.93533325195311,
        -77.05126953125001, 1.0
      ],
      "name": "Sketchfab_model"
    },
    {
      "children": [2],
      "matrix": [
        1.0, 0.0, 0.0, 0.0, 0.0, 0.0, 1.0, 0.0, 0.0, -1.0, 0.0, 0.0, 0.0, 0.0,
        0.0, 1.0
      ],
      "name": "doorknob-lion.fbx"
    },
    {
      "children": [3],
      "name": "RootNode"
    },
    {
      "children": [4],
      "matrix": [
        7.549789959870878e-6, 1.1102230246251565e-14, 99.99999999999972, 0.0,
        99.99999999999962, -4.371139006309477e-6, -7.549789954319763e-6, 0.0,
        4.371139006309477e-6, 99.99999999999991, -3.552713678800501e-13, 0.0,
        0.0, 0.0, 0.0, 1.0
      ],
      "name": "meshNode"
    },
    {
      "mesh": 0,
      "name": "meshNode_Material_u1_v1_0"
    }
  ],
  "samplers": [
    {
      "magFilter": 9729,
      "minFilter": 9987,
      "wrapS": 10497,
      "wrapT": 10497
    }
  ],
  "scene": 0,
  "scenes": [
    {
      "name": "Sketchfab_Scene",
      "nodes": [0]
    }
  ],
  "textures": [
    {
      "sampler": 0,
      "source": 0
    }
  ]
}
